<svg id="Layer_1" data-name="Layer 1" xmlns="http://www.w3.org/2000/svg" viewBox="0 0 49.56 80.57"><defs><style>.cls-1{fill:#fff;}</style></defs><g id="Regular-S"><path class="cls-1" d="M28.54,90C51.83,90,69.9,74.71,69.9,49.71A20,20,0,0,0,50,29.78a19.56,19.56,0,0,0-9.57,2.49C46.26,21.73,57.74,16,71.46,16a3.27,3.27,0,1,0,0-6.54C48.17,9.42,30.1,24.71,30.1,49.71A20.07,20.07,0,0,0,50,69.63a19.33,19.33,0,0,0,9.57-2.49c-5.86,10.54-17.34,16.31-31,16.31a3.25,3.25,0,0,0-3.32,3.27A3.28,3.28,0,0,0,28.54,90ZM50,55.47a5.77,5.77,0,1,1,5.81-5.76A5.78,5.78,0,0,1,50,55.47Z" transform="translate(-25.22 -9.42)"/></g></svg>